# xmcd CD database file
#
# Track frame offsets:
#	150
#	15777
#	31833
#	52810
#	64720
#	83892
#	109490
#	131233
#	151900
#	180404
#	196649
#	220114
#
# Disc length: 3154 seconds
#
# Revision: 0
# Processed by: cddbd v1.5.2PL0 Copyright (c) Steve Scherf et al.
# Submitted via: CDex 1.79
#
DISCID=8e0c500c
DTITLE=Marketa Zdenkova trio a hoste - Jeste je pro koho
DYEAR=2012
DGENRE=Blues
TTITLE0=Marketa Zdenkova trio a hoste - JEDOVATE ZELENY
TTITLE1=Marketa Zdenkova trio a hoste - PRES STOLETI
TTITLE2=Marketa Zdenkova trio a hoste - PISKY CASU
TTITLE3=Marketa Zdenkova trio a hoste - DVEMA MI
TTITLE4=Marketa Zdenkova trio a hoste - ZVIRATA
TTITLE5=Marketa Zdenkova trio a hoste - JAGWAR
TTITLE6=Marketa Zdenkova trio a hoste - STROM
TTITLE7=Marketa Zdenkova trio a hoste - ZAPRAZI
TTITLE8=Marketa Zdenkova trio a hoste - VRABECEK
TTITLE9=Marketa Zdenkova trio a hoste - DOKUD JE PRO KOHO
TTITLE10=Marketa Zdenkova trio a hoste - O CHLAPCI RECE A VLKU
TTITLE11=Marketa Zdenkova Zdenek Zdenek - NETUSIS (2002)
EXTD=YEAR: 2012
EXTT0=
EXTT1=
EXTT2=
EXTT3=
EXTT4=
EXTT5=
EXTT6=
EXTT7=
EXTT8=
EXTT9=
EXTT10=
EXTT11=
PLAYORDER=
